inDegrees=no
num_controls=7
num_derivatives=13
num_iterations=172
num_multipliers=7
num_parameters=0
num_slacks=7
num_states=26
objective=5.723162
objective_accelerations=0.469999
objective_balance=0.054894
objective_effort=0.433353
objective_height=4.741016
objective_ligament=0.023901
solver_duration=1776.462089
status=Solve_Succeeded
success=true
DataType=double
version=3
OpenSimVersion=4.4-2022-07-23-0e9fedc
endheader
time	/jointset/ground_pelvis/pelvis_tilt/value	/jointset/ground_pelvis/pelvis_tx/value	/jointset/ground_pelvis/pelvis_ty/value	/jointset/hip_l/hip_flexion_l/value	/jointset/hip_l/hip_adduction_l/value	/jointset/hip_l/hip_rotation_l/value	/jointset/back/lumbar_extension/value	/jointset/patellofemoral_l/patellar_flexion_l/value	/jointset/knee_l/knee_flexion_l/value	/jointset/knee_l/knee_adduction_l/value	/jointset/knee_l/knee_rotation_l/value	/jointset/ankle_l/ankle_angle_l/value	/jointset/subtalar_l/subtalar_angle_l/value	/jointset/ground_pelvis/pelvis_tilt/speed	/jointset/ground_pelvis/pelvis_tx/speed	/jointset/ground_pelvis/pelvis_ty/speed	/jointset/hip_l/hip_flexion_l/speed	/jointset/hip_l/hip_adduction_l/speed	/jointset/hip_l/hip_rotation_l/speed	/jointset/back/lumbar_extension/speed	/jointset/patellofemoral_l/patellar_flexion_l/speed	/jointset/knee_l/knee_flexion_l/speed	/jointset/knee_l/knee_adduction_l/speed	/jointset/knee_l/knee_rotation_l/speed	/jointset/ankle_l/ankle_angle_l/speed	/jointset/subtalar_l/subtalar_angle_l/speed	/forceset/tau_hip_flexion_l	/forceset/tau_hip_adduction_l	/forceset/tau_hip_rotation_l	/forceset/tau_knee_flexion_l	/forceset/tau_ankle_angle_l	/forceset/tau_subtalar_angle_l	/forceset/tau_lumbar_extension	lambda_cid13_p0	lambda_cid13_p1	lambda_cid13_p2	lambda_cid13_p3	lambda_cid13_p4	lambda_cid13_p5	lambda_cid14_p0	/jointset/ground_pelvis/pelvis_tilt/accel	/jointset/ground_pelvis/pelvis_tx/accel	/jointset/ground_pelvis/pelvis_ty/accel	/jointset/hip_l/hip_flexion_l/accel	/jointset/hip_l/hip_adduction_l/accel	/jointset/hip_l/hip_rotation_l/accel	/jointset/back/lumbar_extension/accel	/jointset/patellofemoral_l/patellar_flexion_l/accel	/jointset/knee_l/knee_flexion_l/accel	/jointset/knee_l/knee_adduction_l/accel	/jointset/knee_l/knee_rotation_l/accel	/jointset/ankle_l/ankle_angle_l/accel	/jointset/subtalar_l/subtalar_angle_l/accel	gamma_cid13_p0	gamma_cid13_p1	gamma_cid13_p2	gamma_cid13_p3	gamma_cid13_p4	gamma_cid13_p5	gamma_cid14_p0
1.5	0.0539860456823305	0.01686555200409204	0.8687236785013897	0.5544771870682842	-0.326742318735585	-0.1406936008719295	-0.7820867063181484	0.7377237153737538	0.73772371537393	-0.1196857218540097	-0.1745329251994329	0.1836430780058228	0.03076208128679957	0.2042871225665747	0.1818521896388306	0.353037550358491	-1.677644785362163	0.0948998365301387	-0.629250605439676	0.845950827814324	-1.888801319368356	-1.888801319368242	-0.1178795119934287	-3.784978610169436e-06	-0.5342349201339307	-0.08248599917016372	-0.1622944119805939	0.02722758485378707	-0.003632520636546984	-0.2232883497108822	0.02858848420844517	0.03914419658608244	0.2568393678946345	-32.96476708666425	-14.19173459654538	5.193046750866205	-3.2103140448359	-671.7517261389369	-76.88526332843945	-16.701246108145	-0.1702863608154122	0.4762205396452401	-0.5535940593895662	-0.4309772650880664	0.4546483222176723	-0.3521935289585654	1.714190073683345	-0.9120838054967453	-0.912083805496736	-0.2102409768510885	0.02863214557861483	-0.2877485136555787	0.4547300112725543	1.632813583550061e-07	1.337531010731654e-06	-5.687767176410393e-07	1.154876936039155e-07	2.478561471784702e-07	7.301349262065533e-07	1.887081380910499e-07
1.51	0.0560204520252087	0.01870770582180605	0.8722257340717942	0.5376805621892917	-0.3257711597155689	-0.147003851493082	-0.7735429342422847	0.7187921847948628	0.718792184794823	-0.1208758296971595	-0.1745328294083316	0.1782868646650934	0.02995934937846591	0.2025744297728599	0.1865575755189996	0.3473053816625608	-1.681468490151254	0.09933783683511622	-0.6327113543885711	0.8626856288089071	-1.89724843687907	-1.897248436879061	-0.1201395947724748	4.601187574180537e-05	-0.53691775823299	-0.07803231163256098	-0.1561398612217429	0.02612979715541474	-0.003592133645763152	-0.2198728177020086	0.03048177714851826	0.03848619983115283	0.2506483304659037	-32.18701674612425	-14.06871173817106	5.203778614990037	-3.303742727369485	-668.1671856398518	-76.82494408819416	-17.35290777639258	-0.174716105165573	0.4645730040651705	-0.5932012601636907	-0.3263086587010677	0.4391729670557408	-0.32960406317031	1.635431329916362	-0.7726101619053035	-0.7726101619209659	-0.2333167442980955	-0.003481645579220527	-0.2450051078722611	0.4447313012110654	1.609800967276371e-07	1.411119364078267e-06	-5.455747739450267e-07	1.222593932386222e-07	2.635386700390223e-07	7.51626680281925e-07	1.907742460535052e-07
1.52	0.05803714036684837	0.02059628857669425	0.8756684333581455	0.5208520519478324	-0.3247554612760198	-0.1533460273007874	-0.7648353529129608	0.6997838661532534	0.6997838661529994	-0.1220884233312695	-0.1745315625519975	0.1729065322134049	0.02920196298074963	0.2007435223184993	0.191137977073668	0.3411662935478844	-1.684021857855602	0.1038077204368131	-0.6356356427500809	0.8787126785063117	-1.904158931911647	-1.904158931911742	-0.1223766701861913	0.0002304046923846441	-0.5390587423256953	-0.07341689704668165	-0.1499853104628993	0.02503200945703609	-0.003551746654943114	-0.2164572856931391	0.03237507008858929	0.03782820307621448	0.244457293037169	-31.40796385291031	-13.94743407630492	5.216522574968127	-3.431511490554439	-664.5914829734567	-76.79719524325046	-17.9976835514548	-0.193929292944571	0.4512236745451386	-0.6349779431387997	-0.1769098481392664	0.4610249815615166	-0.2449014114815961	1.57263981424768	-0.6047593098694448	-0.6047593098694446	-0.205639503785194	0.05555133803669261	-0.1793777123847737	0.4870754209278393	1.442297707416039e-07	1.489154271103884e-06	-4.739264618103315e-07	1.420975805431494e-07	2.48021616466156e-07	7.530786881854476e-07	1.879139413495659e-07
1.53	0.06003476030698326	0.02253001141651464	0.879047734803541	0.5040046720556434	-0.323694890179314	-0.1597151923580974	-0.7559710303638656	0.6807143505638278	0.6807143505635691	-0.1233228758370729	-0.1745281064681551	0.1675075864190667	0.02849159864611456	0.1987581868139975	0.1955811880506593	0.3346325700250528	-1.685237638379621	0.1083061208586464	-0.6381073445112759	0.8940159663731667	-1.909483948491426	-1.909483948491506	-0.1245125774906194	0.000480692782450105	-0.5406395985738998	-0.06863551860459109	-0.1435777361421065	0.02362511672435174	-0.003570072893485073	-0.2134850567531522	0.03466438314599195	0.03714604473330629	0.2380867206370506	-30.51588667944099	-13.83162209985018	5.22576150932672	-3.590102416450186	-661.1965035911554	-76.84246594284322	-18.63071396002072	-0.2041816407788523	0.4370981576882857	-0.671748722545613	-0.06144560367106564	0.4440466924439911	-0.2346358830979541	1.488793531972291	-0.4573723068642436	-0.4573723068620331	-0.2171345101705697	0.01270126064723125	-0.1337686428474595	0.4765144568061451	1.121273138744902e-07	1.571913641413446e-06	-3.508038832095365e-07	1.758189109968607e-07	1.99355012932783e-07	7.332384657813807e-07	1.798193231875825e-07
1.54	0.06201185769975954	0.02450741203578735	0.8823598631805704	0.4871516276683882	-0.3225893752544007	-0.1661063406979482	-0.7469577508842881	0.6615993849136355	0.6615993849133771	-0.1245786010491991	-0.1745215607601719	0.1620955662498854	0.02782961717609168	0.1966390128464547	0.1998735329641343	0.3277316798746227	-1.685154756869153	0.1127964860784653	-0.6400322992588493	0.9085040646027357	-1.913248944064491	-1.913248944064556	-0.1266312114510041	0.0008483295187467835	-0.5416736172944702	-0.06374032412424052	-0.1371701618213047	0.02221822399168261	-0.003588399132026097	-0.2105128278131596	0.03695369620340101	0.03646388639041806	0.2317161482369337	-29.62704440689664	-13.71571754684661	5.235527695014789	-3.766306682000169	-657.873023937164	-76.92039820282412	-19.24193865510171	-0.2206969855527739	0.421050461841899	-0.7084112686584764	0.08282255875839478	0.4594179411586327	-0.1355520087572512	1.409601886790486	-0.292755108526664	-0.2927551085266638	-0.2021848349765183	0.07902106728292965	-0.07001020685790374	0.5098386285798442	8.713341275546054e-08	1.611258817628744e-06	-2.596573761622821e-07	1.959282509455965e-07	1.679987346296569e-07	7.077368802337086e-07	1.714000241305021e-07
